<mxfile host="Electron" agent="Mozilla/5.0 (Windows NT 10.0; Win64; x64) AppleWebKit/537.36 (KHTML, like Gecko) draw.io/24.7.5 Chrome/126.0.6478.183 Electron/31.3.0 Safari/537.36" version="24.7.5">
  <diagram name="PÃ¡gina-1" id="vr1mkFRGfHqPhO6ZruIV">
    <mxGraphModel dx="703" dy="1717" grid="1" gridSize="10" guides="1" tooltips="1" connect="1" arrows="1" fold="1" page="1" pageScale="1" pageWidth="827" pageHeight="1169" math="0" shadow="0">
      <root>
        <mxCell id="0" />
        <mxCell id="1" parent="0" />
        <mxCell id="41ywjdvraxIa2r-hHL1E-27" style="edgeStyle=orthogonalEdgeStyle;rounded=0;orthogonalLoop=1;jettySize=auto;html=1;exitX=1;exitY=0.5;exitDx=0;exitDy=0;entryX=0.05;entryY=-0.067;entryDx=0;entryDy=0;endArrow=none;endFill=0;entryPerimeter=0;" edge="1" parent="1" source="41ywjdvraxIa2r-hHL1E-1" target="41ywjdvraxIa2r-hHL1E-43">
          <mxGeometry relative="1" as="geometry">
            <mxPoint x="360" y="150" as="targetPoint" />
          </mxGeometry>
        </mxCell>
        <mxCell id="41ywjdvraxIa2r-hHL1E-1" value="SISTEMA BATCH" style="whiteSpace=wrap;html=1;align=center;" vertex="1" parent="1">
          <mxGeometry x="120" y="130" width="150" height="40" as="geometry" />
        </mxCell>
        <mxCell id="41ywjdvraxIa2r-hHL1E-2" value="PROGRAMA" style="whiteSpace=wrap;html=1;align=center;" vertex="1" parent="1">
          <mxGeometry x="520" y="130" width="100" height="40" as="geometry" />
        </mxCell>
        <mxCell id="41ywjdvraxIa2r-hHL1E-37" value="" style="edgeStyle=orthogonalEdgeStyle;rounded=0;orthogonalLoop=1;jettySize=auto;html=1;" edge="1" parent="1" source="41ywjdvraxIa2r-hHL1E-3" target="41ywjdvraxIa2r-hHL1E-22">
          <mxGeometry relative="1" as="geometry" />
        </mxCell>
        <mxCell id="41ywjdvraxIa2r-hHL1E-3" value="ARCHIVO" style="whiteSpace=wrap;html=1;align=center;" vertex="1" parent="1">
          <mxGeometry x="350" y="340" width="100" height="40" as="geometry" />
        </mxCell>
        <mxCell id="41ywjdvraxIa2r-hHL1E-5" style="edgeStyle=orthogonalEdgeStyle;rounded=0;orthogonalLoop=1;jettySize=auto;html=1;exitX=0;exitY=0;exitDx=30;exitDy=0;exitPerimeter=0;entryX=0.5;entryY=0;entryDx=0;entryDy=0;endArrow=none;endFill=0;" edge="1" parent="1" source="41ywjdvraxIa2r-hHL1E-4" target="41ywjdvraxIa2r-hHL1E-3">
          <mxGeometry relative="1" as="geometry" />
        </mxCell>
        <mxCell id="41ywjdvraxIa2r-hHL1E-8" style="edgeStyle=orthogonalEdgeStyle;rounded=0;orthogonalLoop=1;jettySize=auto;html=1;exitX=0;exitY=1;exitDx=0;exitDy=0;exitPerimeter=0;entryX=0.5;entryY=1;entryDx=0;entryDy=0;endArrow=none;endFill=0;" edge="1" parent="1" source="41ywjdvraxIa2r-hHL1E-4" target="41ywjdvraxIa2r-hHL1E-2">
          <mxGeometry relative="1" as="geometry">
            <Array as="points">
              <mxPoint x="430" y="230" />
              <mxPoint x="570" y="230" />
            </Array>
          </mxGeometry>
        </mxCell>
        <mxCell id="41ywjdvraxIa2r-hHL1E-9" style="edgeStyle=orthogonalEdgeStyle;rounded=0;orthogonalLoop=1;jettySize=auto;html=1;exitX=1;exitY=1;exitDx=0;exitDy=0;exitPerimeter=0;entryX=0.5;entryY=1;entryDx=0;entryDy=0;endArrow=none;endFill=0;" edge="1" parent="1" source="41ywjdvraxIa2r-hHL1E-4" target="41ywjdvraxIa2r-hHL1E-1">
          <mxGeometry relative="1" as="geometry">
            <Array as="points">
              <mxPoint x="370" y="230" />
              <mxPoint x="195" y="230" />
            </Array>
          </mxGeometry>
        </mxCell>
        <mxCell id="41ywjdvraxIa2r-hHL1E-4" value="" style="verticalLabelPosition=bottom;verticalAlign=top;html=1;shape=mxgraph.basic.acute_triangle;dx=0.5;rotation=-180;" vertex="1" parent="1">
          <mxGeometry x="370" y="228" width="60" height="42" as="geometry" />
        </mxCell>
        <mxCell id="41ywjdvraxIa2r-hHL1E-10" value="id" style="ellipse;whiteSpace=wrap;html=1;align=center;fontStyle=4;" vertex="1" parent="1">
          <mxGeometry x="70" y="60" width="50" height="40" as="geometry" />
        </mxCell>
        <mxCell id="41ywjdvraxIa2r-hHL1E-11" value="nombre" style="ellipse;whiteSpace=wrap;html=1;align=center;" vertex="1" parent="1">
          <mxGeometry x="150" y="60" width="80" height="40" as="geometry" />
        </mxCell>
        <mxCell id="41ywjdvraxIa2r-hHL1E-12" style="edgeStyle=orthogonalEdgeStyle;rounded=0;orthogonalLoop=1;jettySize=auto;html=1;exitX=0.5;exitY=1;exitDx=0;exitDy=0;entryX=0.113;entryY=-0.025;entryDx=0;entryDy=0;entryPerimeter=0;endArrow=none;endFill=0;" edge="1" parent="1" source="41ywjdvraxIa2r-hHL1E-10" target="41ywjdvraxIa2r-hHL1E-1">
          <mxGeometry relative="1" as="geometry" />
        </mxCell>
        <mxCell id="41ywjdvraxIa2r-hHL1E-13" style="edgeStyle=orthogonalEdgeStyle;rounded=0;orthogonalLoop=1;jettySize=auto;html=1;exitX=0.5;exitY=1;exitDx=0;exitDy=0;entryX=0.453;entryY=-0.075;entryDx=0;entryDy=0;entryPerimeter=0;endArrow=none;endFill=0;" edge="1" parent="1" source="41ywjdvraxIa2r-hHL1E-11" target="41ywjdvraxIa2r-hHL1E-1">
          <mxGeometry relative="1" as="geometry" />
        </mxCell>
        <mxCell id="41ywjdvraxIa2r-hHL1E-14" value="id" style="ellipse;whiteSpace=wrap;html=1;align=center;fontStyle=4;" vertex="1" parent="1">
          <mxGeometry x="490" y="60" width="50" height="40" as="geometry" />
        </mxCell>
        <mxCell id="41ywjdvraxIa2r-hHL1E-15" value="nombre" style="ellipse;whiteSpace=wrap;html=1;align=center;" vertex="1" parent="1">
          <mxGeometry x="570" y="60" width="80" height="40" as="geometry" />
        </mxCell>
        <mxCell id="41ywjdvraxIa2r-hHL1E-16" value="id" style="ellipse;whiteSpace=wrap;html=1;align=center;fontStyle=4;" vertex="1" parent="1">
          <mxGeometry x="330" y="430" width="50" height="40" as="geometry" />
        </mxCell>
        <mxCell id="41ywjdvraxIa2r-hHL1E-17" value="nombre" style="ellipse;whiteSpace=wrap;html=1;align=center;" vertex="1" parent="1">
          <mxGeometry x="410" y="430" width="80" height="40" as="geometry" />
        </mxCell>
        <mxCell id="41ywjdvraxIa2r-hHL1E-18" style="edgeStyle=orthogonalEdgeStyle;rounded=0;orthogonalLoop=1;jettySize=auto;html=1;exitX=0.5;exitY=1;exitDx=0;exitDy=0;entryX=0.66;entryY=0.075;entryDx=0;entryDy=0;entryPerimeter=0;endArrow=none;endFill=0;" edge="1" parent="1" source="41ywjdvraxIa2r-hHL1E-15" target="41ywjdvraxIa2r-hHL1E-2">
          <mxGeometry relative="1" as="geometry" />
        </mxCell>
        <mxCell id="41ywjdvraxIa2r-hHL1E-19" style="edgeStyle=orthogonalEdgeStyle;rounded=0;orthogonalLoop=1;jettySize=auto;html=1;exitX=0.5;exitY=1;exitDx=0;exitDy=0;entryX=0.34;entryY=0;entryDx=0;entryDy=0;entryPerimeter=0;endArrow=none;endFill=0;" edge="1" parent="1" source="41ywjdvraxIa2r-hHL1E-14" target="41ywjdvraxIa2r-hHL1E-2">
          <mxGeometry relative="1" as="geometry" />
        </mxCell>
        <mxCell id="41ywjdvraxIa2r-hHL1E-20" style="edgeStyle=orthogonalEdgeStyle;rounded=0;orthogonalLoop=1;jettySize=auto;html=1;exitX=0.5;exitY=0;exitDx=0;exitDy=0;entryX=0.35;entryY=0.975;entryDx=0;entryDy=0;entryPerimeter=0;endArrow=none;endFill=0;" edge="1" parent="1" source="41ywjdvraxIa2r-hHL1E-16" target="41ywjdvraxIa2r-hHL1E-3">
          <mxGeometry relative="1" as="geometry" />
        </mxCell>
        <mxCell id="41ywjdvraxIa2r-hHL1E-21" style="edgeStyle=orthogonalEdgeStyle;rounded=0;orthogonalLoop=1;jettySize=auto;html=1;exitX=0.5;exitY=0;exitDx=0;exitDy=0;entryX=0.69;entryY=1.05;entryDx=0;entryDy=0;entryPerimeter=0;endArrow=none;endFill=0;" edge="1" parent="1" source="41ywjdvraxIa2r-hHL1E-17" target="41ywjdvraxIa2r-hHL1E-3">
          <mxGeometry relative="1" as="geometry" />
        </mxCell>
        <mxCell id="41ywjdvraxIa2r-hHL1E-41" value="" style="edgeStyle=orthogonalEdgeStyle;rounded=0;orthogonalLoop=1;jettySize=auto;html=1;" edge="1" parent="1" source="41ywjdvraxIa2r-hHL1E-22" target="41ywjdvraxIa2r-hHL1E-38">
          <mxGeometry relative="1" as="geometry" />
        </mxCell>
        <mxCell id="41ywjdvraxIa2r-hHL1E-22" value="Utiliza" style="text;html=1;align=center;verticalAlign=middle;resizable=0;points=[];autosize=1;strokeColor=none;fillColor=none;" vertex="1" parent="1">
          <mxGeometry x="370" y="228" width="60" height="30" as="geometry" />
        </mxCell>
        <mxCell id="41ywjdvraxIa2r-hHL1E-23" value="ModoAcceso" style="ellipse;whiteSpace=wrap;html=1;align=center;" vertex="1" parent="1">
          <mxGeometry x="250" y="258" width="100" height="40" as="geometry" />
        </mxCell>
        <mxCell id="41ywjdvraxIa2r-hHL1E-25" style="edgeStyle=orthogonalEdgeStyle;rounded=0;orthogonalLoop=1;jettySize=auto;html=1;exitX=1;exitY=0.5;exitDx=0;exitDy=0;entryX=0.45;entryY=0.9;entryDx=0;entryDy=0;entryPerimeter=0;endArrow=none;endFill=0;" edge="1" parent="1" source="41ywjdvraxIa2r-hHL1E-23" target="41ywjdvraxIa2r-hHL1E-22">
          <mxGeometry relative="1" as="geometry" />
        </mxCell>
        <mxCell id="41ywjdvraxIa2r-hHL1E-28" style="edgeStyle=orthogonalEdgeStyle;rounded=0;orthogonalLoop=1;jettySize=auto;html=1;entryX=0;entryY=0.5;entryDx=0;entryDy=0;endArrow=none;endFill=0;exitX=0;exitY=0;exitDx=25;exitDy=0;exitPerimeter=0;" edge="1" parent="1" source="41ywjdvraxIa2r-hHL1E-42" target="41ywjdvraxIa2r-hHL1E-2">
          <mxGeometry relative="1" as="geometry">
            <mxPoint x="440" y="150" as="sourcePoint" />
          </mxGeometry>
        </mxCell>
        <mxCell id="41ywjdvraxIa2r-hHL1E-29" value="frecuenciaEj" style="ellipse;whiteSpace=wrap;html=1;align=center;" vertex="1" parent="1">
          <mxGeometry x="265" y="-90" width="90" height="40" as="geometry" />
        </mxCell>
        <mxCell id="41ywjdvraxIa2r-hHL1E-31" value="resultadoEj" style="ellipse;whiteSpace=wrap;html=1;align=center;" vertex="1" parent="1">
          <mxGeometry x="260" y="-20" width="80" height="40" as="geometry" />
        </mxCell>
        <mxCell id="41ywjdvraxIa2r-hHL1E-33" value="N" style="text;html=1;align=center;verticalAlign=middle;resizable=0;points=[];autosize=1;strokeColor=none;fillColor=none;" vertex="1" parent="1">
          <mxGeometry x="495" y="128" width="30" height="30" as="geometry" />
        </mxCell>
        <mxCell id="41ywjdvraxIa2r-hHL1E-34" value="N" style="text;html=1;align=center;verticalAlign=middle;resizable=0;points=[];autosize=1;strokeColor=none;fillColor=none;" vertex="1" parent="1">
          <mxGeometry x="265" y="128" width="30" height="30" as="geometry" />
        </mxCell>
        <mxCell id="41ywjdvraxIa2r-hHL1E-35" value="N" style="text;html=1;align=center;verticalAlign=middle;resizable=0;points=[];autosize=1;strokeColor=none;fillColor=none;" vertex="1" parent="1">
          <mxGeometry x="190" y="170" width="30" height="30" as="geometry" />
        </mxCell>
        <mxCell id="41ywjdvraxIa2r-hHL1E-36" value="N" style="text;html=1;align=center;verticalAlign=middle;resizable=0;points=[];autosize=1;strokeColor=none;fillColor=none;" vertex="1" parent="1">
          <mxGeometry x="540" y="170" width="30" height="30" as="geometry" />
        </mxCell>
        <mxCell id="41ywjdvraxIa2r-hHL1E-38" value="N" style="text;html=1;align=center;verticalAlign=middle;resizable=0;points=[];autosize=1;strokeColor=none;fillColor=none;" vertex="1" parent="1">
          <mxGeometry x="399" y="310" width="30" height="30" as="geometry" />
        </mxCell>
        <mxCell id="41ywjdvraxIa2r-hHL1E-39" value="USUARIO" style="whiteSpace=wrap;html=1;align=center;" vertex="1" parent="1">
          <mxGeometry x="455" y="-40" width="100" height="40" as="geometry" />
        </mxCell>
        <mxCell id="41ywjdvraxIa2r-hHL1E-42" value="" style="verticalLabelPosition=bottom;verticalAlign=top;html=1;shape=mxgraph.basic.acute_triangle;dx=0.5;rotation=-180;" vertex="1" parent="1">
          <mxGeometry x="375" y="40" width="50" height="40" as="geometry" />
        </mxCell>
        <mxCell id="41ywjdvraxIa2r-hHL1E-43" value="Accede" style="text;html=1;align=center;verticalAlign=middle;resizable=0;points=[];autosize=1;strokeColor=none;fillColor=none;" vertex="1" parent="1">
          <mxGeometry x="370" y="40" width="60" height="30" as="geometry" />
        </mxCell>
        <mxCell id="41ywjdvraxIa2r-hHL1E-44" style="edgeStyle=orthogonalEdgeStyle;rounded=0;orthogonalLoop=1;jettySize=auto;html=1;exitX=0.5;exitY=1;exitDx=0;exitDy=0;entryX=0.95;entryY=0.1;entryDx=0;entryDy=0;entryPerimeter=0;endArrow=none;endFill=0;" edge="1" parent="1" source="41ywjdvraxIa2r-hHL1E-39" target="41ywjdvraxIa2r-hHL1E-43">
          <mxGeometry relative="1" as="geometry" />
        </mxCell>
        <mxCell id="41ywjdvraxIa2r-hHL1E-45" style="edgeStyle=orthogonalEdgeStyle;rounded=0;orthogonalLoop=1;jettySize=auto;html=1;exitX=1;exitY=0.5;exitDx=0;exitDy=0;entryX=0.267;entryY=0.1;entryDx=0;entryDy=0;entryPerimeter=0;endArrow=none;endFill=0;" edge="1" parent="1" source="41ywjdvraxIa2r-hHL1E-29" target="41ywjdvraxIa2r-hHL1E-43">
          <mxGeometry relative="1" as="geometry" />
        </mxCell>
        <mxCell id="41ywjdvraxIa2r-hHL1E-47" value="id" style="ellipse;whiteSpace=wrap;html=1;align=center;fontStyle=4;" vertex="1" parent="1">
          <mxGeometry x="425" y="-110" width="50" height="40" as="geometry" />
        </mxCell>
        <mxCell id="41ywjdvraxIa2r-hHL1E-48" value="nombre" style="ellipse;whiteSpace=wrap;html=1;align=center;" vertex="1" parent="1">
          <mxGeometry x="505" y="-110" width="80" height="40" as="geometry" />
        </mxCell>
        <mxCell id="41ywjdvraxIa2r-hHL1E-51" style="edgeStyle=orthogonalEdgeStyle;rounded=0;orthogonalLoop=1;jettySize=auto;html=1;exitX=0.5;exitY=1;exitDx=0;exitDy=0;entryX=0.39;entryY=-0.05;entryDx=0;entryDy=0;entryPerimeter=0;endArrow=none;endFill=0;" edge="1" parent="1" source="41ywjdvraxIa2r-hHL1E-47" target="41ywjdvraxIa2r-hHL1E-39">
          <mxGeometry relative="1" as="geometry" />
        </mxCell>
        <mxCell id="41ywjdvraxIa2r-hHL1E-52" style="edgeStyle=orthogonalEdgeStyle;rounded=0;orthogonalLoop=1;jettySize=auto;html=1;exitX=0.5;exitY=1;exitDx=0;exitDy=0;entryX=0.67;entryY=0.025;entryDx=0;entryDy=0;entryPerimeter=0;endArrow=none;endFill=0;" edge="1" parent="1" source="41ywjdvraxIa2r-hHL1E-48" target="41ywjdvraxIa2r-hHL1E-39">
          <mxGeometry relative="1" as="geometry" />
        </mxCell>
        <mxCell id="41ywjdvraxIa2r-hHL1E-53" style="edgeStyle=orthogonalEdgeStyle;rounded=0;orthogonalLoop=1;jettySize=auto;html=1;exitX=1;exitY=0.5;exitDx=0;exitDy=0;entryX=0.25;entryY=-0.033;entryDx=0;entryDy=0;entryPerimeter=0;endArrow=none;endFill=0;" edge="1" parent="1" source="41ywjdvraxIa2r-hHL1E-31" target="41ywjdvraxIa2r-hHL1E-43">
          <mxGeometry relative="1" as="geometry" />
        </mxCell>
      </root>
    </mxGraphModel>
  </diagram>
</mxfile>
